HIERARCHY
ROOT joint_Root
{
	OFFSET 0.0 0.0 0.0
	CHANNELS 6 Xposition Yposition Zposition Zrotation Xrotation Yrotation 
	JOINT Hips
	{
		OFFSET -17.1583 93.1646 452.98
		CHANNELS 6 Xposition Yposition Zposition Zrotation Xrotation Yrotation 
		JOINT Spine
		{
			OFFSET 15.7357 0.0 0.0
			CHANNELS 6 Xposition Yposition Zposition Zrotation Xrotation Yrotation 
			JOINT Chest
			{
				OFFSET 8.98455 -0.406207 0.0
				CHANNELS 6 Xposition Yposition Zposition Zrotation Xrotation Yrotation 
				JOINT Neck
				{
					OFFSET 16.3773 0.0 0.0
					CHANNELS 6 Xposition Yposition Zposition Zrotation Xrotation Yrotation 
					JOINT Head
					{
						OFFSET 6.45672 0.0 0.0
						CHANNELS 6 Xposition Yposition Zposition Zrotation Xrotation Yrotation 
						End Site
						{
							OFFSET 0.0 0.0 0.0
						}
					}
				}
				JOINT Shoulder_L
				{
					OFFSET 12.9942 -0.242716 4.98039
					CHANNELS 6 Xposition Yposition Zposition Zrotation Xrotation Yrotation 
					JOINT UpperArm_L
					{
						OFFSET 5.34809 0.0 0.0
						CHANNELS 6 Xposition Yposition Zposition Zrotation Xrotation Yrotation 
						JOINT LowerArm_L
						{
							OFFSET 24.3286 1.87007e-05 0.0
							CHANNELS 6 Xposition Yposition Zposition Zrotation Xrotation Yrotation 
							JOINT Hand_L
							{
								OFFSET 22.2916 0.0 0.0
								CHANNELS 6 Xposition Yposition Zposition Zrotation Xrotation Yrotation 
								End Site
								{
									OFFSET 0.0 0.0 0.0
								}
							}
						}
					}
				}
				JOINT Shoulder_R
				{
					OFFSET 12.9945 -0.242716 -4.98039
					CHANNELS 6 Xposition Yposition Zposition Zrotation Xrotation Yrotation 
					JOINT UpperArm_R
					{
						OFFSET -5.34813 0.0 0.0
						CHANNELS 6 Xposition Yposition Zposition Zrotation Xrotation Yrotation 
						JOINT LowerArm_R
						{
							OFFSET -24.3289 0.000322201 0.0
							CHANNELS 6 Xposition Yposition Zposition Zrotation Xrotation Yrotation 
							JOINT Hand_R
							{
								OFFSET -22.2915 -0.000108084 0.0
								CHANNELS 6 Xposition Yposition Zposition Zrotation Xrotation Yrotation 
								End Site
								{
									OFFSET 0.0 0.0 0.0
								}
							}
						}
					}
				}
			}
		}
		JOINT UpperLeg_L
		{
			OFFSET -2.19248 -6.46944 0.0
			CHANNELS 6 Xposition Yposition Zposition Zrotation Xrotation Yrotation 
			JOINT LowerLeg_L
			{
				OFFSET 39.0811 0.0 -1.23785e-05
				CHANNELS 6 Xposition Yposition Zposition Zrotation Xrotation Yrotation 
				JOINT Foot_L
				{
					OFFSET 40.9854 0.0 -1.26872e-05
					CHANNELS 6 Xposition Yposition Zposition Zrotation Xrotation Yrotation 
					JOINT Toes_L
					{
						OFFSET 11.7543 0.0 0.0
						CHANNELS 6 Xposition Yposition Zposition Zrotation Xrotation Yrotation 
						End Site
						{
							OFFSET 0.0 0.0 0.0
						}
					}
				}
			}
		}
		JOINT UpperLeg_R
		{
			OFFSET -2.19251 6.46944 0.0
			CHANNELS 6 Xposition Yposition Zposition Zrotation Xrotation Yrotation 
			JOINT LowerLeg_R
			{
				OFFSET -39.0811 -0.00228153 -0.0401928
				CHANNELS 6 Xposition Yposition Zposition Zrotation Xrotation Yrotation 
				JOINT Foot_R
				{
					OFFSET -40.9854 0.0 0.0
					CHANNELS 6 Xposition Yposition Zposition Zrotation Xrotation Yrotation 
					JOINT Toes_R
					{
						OFFSET -11.7543 0.0 0.0
						CHANNELS 6 Xposition Yposition Zposition Zrotation Xrotation Yrotation 
						End Site
						{
							OFFSET 0.0 0.0 0.0
						}
					}
				}
			}
		}
	}
}
MOTION
Frames:	6
Frame Time:	0.0333333
0.000000 0.000000 0.000000 0.000000 0.000000 -0.000000 215.944000 88.502400 -157.860000 81.201800 6.108320 -1.157680 15.735700 0.000005 -0.000001 52.709400 87.258600 -47.903900 8.984550 -0.406207 -0.000000 -3.230500 -3.780660 9.509580 16.377300 -0.000001 -0.000001 -2.451840 0.696112 -1.019910 6.456720 -0.000001 -0.000000 5.355540 1.039990 -3.821810 12.994200 -0.242716 4.980390 -93.347200 9.996350 -71.380000 5.348090 -0.000007 -0.000001 -69.183100 -11.020200 2.116630 24.328600 0.000019 0.000005 2.891420 33.952900 -5.168350 22.291600 -0.000001 0.000005 -17.259700 5.202940 2.646640 12.994500 -0.242716 -4.980390 88.361700 5.012360 -71.874000 -5.348130 -0.000001 -0.000004 -67.689000 6.719640 -4.156160 -24.328900 0.000322 -0.000009 0.218190 2.927220 -4.291450 -22.291500 -0.000108 -0.000004 -2.258780 5.169970 3.462930 -2.192480 -6.469440 -0.000000 -165.362000 0.491709 -7.098930 39.081100 -0.000007 -0.000012 0.299603 -0.182319 58.677700 40.985400 -0.000006 -0.000013 -8.025610 5.618860 -23.205700 11.754300 -0.000000 0.000003 0.000430 0.007585 -16.269500 -2.192510 6.469440 -0.000001 -168.205000 3.042860 160.697000 -39.081100 -0.002282 -0.040193 -0.001593 0.005431 41.859600 -40.985400 0.000008 0.000006 -4.914030 -4.272740 -80.826100 -11.754300 -0.000006 -0.000006 -0.005831 0.236961 -6.953530
0.000000 0.000000 0.000000 0.000000 0.000000 -0.000000 215.950000 89.422300 -154.899000 82.164500 6.939240 -0.452959 15.735700 0.000005 -0.000001 72.224500 87.440000 -68.118500 8.984550 -0.406207 -0.000000 -2.808410 -1.940900 8.165650 16.377300 -0.000001 -0.000001 -2.770910 -0.498938 -0.746946 6.456720 -0.000001 -0.000000 4.668850 -1.093360 -2.993500 12.994200 -0.242716 4.980390 -93.141600 9.302680 -71.245600 5.348090 -0.000007 -0.000001 -66.572700 -11.985000 1.281480 24.328600 0.000019 0.000005 4.365940 30.285500 -8.608950 22.291600 -0.000001 0.000005 -14.368200 5.198940 2.747840 12.994500 -0.242716 -4.980390 88.408000 4.978930 -72.243300 -5.348130 -0.000001 -0.000004 -67.965900 11.917300 -6.072490 -24.328900 0.000322 -0.000009 0.339850 2.294660 -8.448470 -22.291500 -0.000108 -0.000004 -0.140531 5.225880 2.062670 -2.192480 -6.469440 -0.000000 -166.577000 2.116470 -12.778900 39.081100 -0.000007 -0.000012 0.281908 -0.135875 64.266000 40.985400 -0.000006 -0.000013 -8.917380 8.460350 -28.561900 11.754300 -0.000000 0.000003 0.000549 0.009815 -16.179000 -2.192510 6.469440 -0.000001 -169.278000 4.849410 165.706000 -39.081100 -0.002282 -0.040193 -0.014643 0.023238 37.649500 -40.985400 0.000008 0.000006 -4.978370 -3.366980 -80.402800 -11.754300 -0.000006 -0.000006 -0.005506 0.233948 -7.076390
0.000000 0.000000 0.000000 0.000000 0.000000 -0.000000 216.298000 90.664900 -152.064000 84.363600 7.053110 -0.405451 15.735700 0.000005 -0.000001 89.672300 87.392400 -86.664300 8.984550 -0.406207 -0.000000 -2.535860 -0.300018 6.009280 16.377300 -0.000001 -0.000001 -2.832790 -1.189100 -0.601478 6.456720 -0.000001 -0.000000 4.133800 -2.457950 -2.077830 12.994200 -0.242716 4.980390 -92.856100 8.366910 -71.075100 5.348090 -0.000007 -0.000001 -63.891600 -12.188600 0.616050 24.328600 0.000019 0.000005 6.606140 29.502900 -13.234000 22.291600 -0.000001 0.000005 -10.163500 5.182690 3.141280 12.994500 -0.242716 -4.980390 88.655800 4.281600 -72.552700 -5.348130 -0.000001 -0.000004 -67.996300 15.429400 -8.695930 -24.328900 0.000322 -0.000009 0.864300 3.727720 -13.070300 -22.291500 -0.000108 -0.000004 2.903450 5.226040 2.056820 -2.192480 -6.469440 -0.000000 -169.424000 3.238230 -17.669400 39.081100 -0.000007 -0.000012 0.251023 -0.112386 65.880500 40.985400 -0.000006 -0.000013 -9.813680 10.132400 -34.877600 11.754300 -0.000000 0.000003 0.000886 0.016547 -15.905700 -2.192510 6.469440 -0.000001 -171.891000 5.555200 170.815000 -39.081100 -0.002282 -0.040193 -0.024887 0.044965 32.080400 -40.985400 0.000008 0.000006 -5.389190 -2.614870 -78.702400 -11.754300 -0.000006 -0.000006 -0.005298 0.231993 -7.156090
0.000000 0.000000 0.000000 0.000000 0.000000 -0.000000 216.731000 92.016600 -149.400000 86.510500 6.580640 -1.043130 15.735700 0.000005 -0.000001 102.989000 87.323000 -101.030000 8.984550 -0.406207 -0.000000 -2.563630 1.026470 3.942530 16.377300 -0.000001 -0.000001 -2.891630 -1.413390 -0.511206 6.456720 -0.000001 -0.000000 3.990000 -3.176100 -1.431800 12.994200 -0.242716 4.980390 -92.547500 7.348210 -70.818800 5.348090 -0.000007 -0.000001 -61.039000 -12.162000 0.309067 24.328600 0.000019 0.000005 8.636820 28.033500 -17.911000 22.291600 -0.000001 0.000005 -5.743680 5.128940 4.432780 12.994500 -0.242716 -4.980390 89.015200 3.245380 -73.110200 -5.348130 -0.000001 -0.000004 -67.641100 17.275300 -11.764400 -24.328900 0.000322 -0.000009 1.547740 4.889540 -17.599600 -22.291500 -0.000108 -0.000004 4.710150 5.238190 1.744050 -2.192480 -6.469440 -0.000000 -172.068000 4.013300 -21.799200 39.081100 -0.000007 -0.000012 0.230747 -0.114013 63.705000 40.985400 -0.000006 -0.000013 -11.304300 10.630700 -41.530100 11.754300 -0.000000 0.000003 0.001141 0.022128 -15.679200 -2.192510 6.469440 -0.000001 -174.433000 5.427700 174.987000 -39.081100 -0.002282 -0.040193 -0.024752 0.056650 26.350900 -40.985400 0.000008 0.000006 -5.912280 -2.316700 -75.391800 -11.754300 -0.000006 -0.000006 -0.003343 0.212090 -7.966830
0.000000 0.000000 0.000000 0.000000 0.000000 -0.000000 217.127000 93.191400 -146.866000 87.819200 5.765630 -1.904170 15.735700 0.000005 -0.000001 112.974000 87.245300 -111.703000 8.984550 -0.406207 -0.000000 -2.715630 2.033380 2.589970 16.377300 -0.000001 -0.000001 -2.948000 -1.228470 -0.717678 6.456720 -0.000001 -0.000000 4.050670 -3.397070 -0.995417 12.994200 -0.242716 4.980390 -92.402600 6.777000 -70.426400 5.348090 -0.000007 -0.000001 -57.700300 -12.470300 0.235470 24.328600 0.000019 0.000005 9.620360 25.306100 -21.631800 22.291600 -0.000001 0.000005 -2.096390 5.076930 5.630740 12.994500 -0.242716 -4.980390 89.315000 2.359870 -73.809500 -5.348130 -0.000001 -0.000004 -66.525800 17.690200 -14.946200 -24.328900 0.000322 -0.000009 1.615730 3.947750 -22.299500 -22.291500 -0.000108 -0.000004 4.631910 5.270620 0.878819 -2.192480 -6.469440 -0.000000 -173.560000 4.607400 -24.962800 39.081100 -0.000007 -0.000012 0.184375 -0.113657 58.347500 40.985400 -0.000006 -0.000013 -11.378800 11.659900 -48.187200 11.754300 -0.000000 0.000003 0.001755 0.038331 -15.021900 -2.192510 6.469440 -0.000001 -176.218000 6.626590 178.212000 -39.081100 -0.002282 -0.040193 -0.017684 0.053848 21.307600 -40.985400 0.000008 0.000006 -5.520520 -1.020490 -71.157300 -11.754300 -0.000006 -0.000006 -0.000708 0.178842 -9.318920
0.000000 0.000000 0.000000 0.000000 0.000000 -0.000000 217.516000 94.035600 -144.452000 88.721800 5.052790 -3.131560 15.735700 0.000005 -0.000001 121.387000 87.320000 -120.584000 8.984550 -0.406207 -0.000000 -3.210510 2.713440 1.683240 16.377300 -0.000001 -0.000001 -2.925000 -0.949576 -1.035040 6.456720 -0.000001 -0.000000 4.141370 -3.356860 -0.911595 12.994200 -0.242716 4.980390 -92.402400 6.645720 -70.073500 5.348090 -0.000007 -0.000001 -54.156500 -13.767600 0.271841 24.328600 0.000019 0.000005 9.471980 21.951800 -24.052700 22.291600 -0.000001 0.000005 0.505119 5.043500 6.378650 12.994500 -0.242716 -4.980390 89.474300 1.887960 -74.436400 -5.348130 -0.000001 -0.000004 -65.181100 16.137000 -17.710100 -24.328900 0.000322 -0.000009 1.055900 2.059380 -27.200700 -22.291500 -0.000108 -0.000004 3.518100 5.291780 0.300020 -2.192480 -6.469440 -0.000000 -174.327000 5.171890 -27.146300 39.081100 -0.000007 -0.000012 0.131511 -0.112369 49.487000 40.985400 -0.000006 -0.000013 -10.732500 12.435200 -52.688400 11.754300 -0.000000 0.000003 0.001546 0.032239 -15.269000 -2.192510 6.469440 -0.000001 -177.779000 9.208300 -179.298000 -39.081100 -0.002282 -0.040193 -0.009508 0.042533 16.792500 -40.985400 0.000008 0.000006 -4.912390 1.574390 -67.241300 -11.754300 -0.000006 -0.000006 0.001289 0.142043 -10.812900
